<svg width="256" height="256" viewBox="0 0 256 256" fill="none" xmlns="http://www.w3.org/2000/svg">
<path d="M192 0H64C28.6538 0 0 28.6538 0 64V192C0 227.346 28.6538 256 64 256H192C227.346 256 256 227.346 256 192V64C256 28.6538 227.346 0 192 0Z" fill="url(#paint0_linear_2_29)"/>
<path fill-rule="evenodd" clip-rule="evenodd" d="M33 67.5455C33 48.4666 51.1475 33 73.5333 33H182.467C204.852 33 223 48.4666 223 67.5455V188.455C223 207.533 204.852 223 182.467 223H73.5333C51.1475 223 33 207.533 33 188.455V67.5455ZM96.3333 89.1364C84.4409 89.1364 74.8 97.353 74.8 107.489V148.511C74.8 158.647 84.4409 166.864 96.3333 166.864H157.133C169.026 166.864 178.667 158.647 178.667 148.511V107.489C178.667 97.353 169.026 89.1364 157.133 89.1364H96.3333ZM105.833 109.648C105.833 105.601 111.124 103.209 115.093 105.443L149.495 124.81C153.086 126.832 153.086 131.327 149.495 133.349L115.093 152.716C111.124 154.95 105.833 152.522 105.833 148.475V109.648Z" fill="url(#paint1_linear_2_29)"/>
<path d="M190 91C190 86.0294 185.971 82 181 82C176.029 82 172 86.0294 172 91V165C172 169.971 176.029 174 181 174C185.971 174 190 169.971 190 165V91Z" fill="#F8FAFC"/>
<path opacity="0.9" d="M211 73C211 68.0294 206.971 64 202 64C197.029 64 193 68.0294 193 73V165C193 169.971 197.029 174 202 174C206.971 174 211 169.971 211 165V73Z" fill="#F8FAFC"/>
<path opacity="0.72" d="M232 105C232 100.029 227.971 96 223 96C218.029 96 214 100.029 214 105V165C214 169.971 218.029 174 223 174C227.971 174 232 169.971 232 165V105Z" fill="#F8FAFC"/>
<defs>
<linearGradient id="paint0_linear_2_29" x1="36" y1="24" x2="220" y2="232" gradientUnits="userSpaceOnUse">
<stop stop-color="#0F172A"/>
<stop offset="1" stop-color="#1E293B"/>
</linearGradient>
<linearGradient id="paint1_linear_2_29" x1="59.6" y1="48.1136" x2="205.709" y2="227.002" gradientUnits="userSpaceOnUse">
<stop stop-color="#67E8F9"/>
<stop offset="1" stop-color="#22C55E"/>
</linearGradient>
</defs>
</svg>
